<svg xmlns="http://www.w3.org/2000/svg" viewBox="-2.70 9.00 161.75 43.70" width="162" height="44" role="img" aria-label="faceto"><path d="M7.6000000000000005 48.0H13.9V28.4H20.400000000000002V23.2H13.9V19.7C13.9 18.7 14.4 18.2 15.3 18.2H19.6V13.0H13.100000000000001C9.8 13.0 7.6000000000000005 15.199999999999996 7.6000000000000005 18.599999999999998V23.2H1.3V28.4H7.6000000000000005ZM32.0 48.7C37.2 48.7 38.75 45.9 39.2 44.65H40.150000000000006V44.7C40.150000000000006 46.7 41.95 48.0 44.400000000000006 48.0H48.6V42.8H46.6C45.7 42.8 45.2 42.3 45.2 41.3V32.05C45.2 25.849999999999998 41.1 22.5 34.6 22.5C28.150000000000002 22.5 24.900000000000002 25.75 23.700000000000003 29.5L29.5 31.45C29.950000000000003 29.2 31.35 27.599999999999998 34.5 27.599999999999998C37.7 27.599999999999998 39.1 29.3 39.1 31.599999999999998V33.0H32.3C26.700000000000003 33.0 22.7 35.65 22.7 40.75C22.7 45.85 26.700000000000003 48.7 32.0 48.7ZM33.1 43.6C30.400000000000002 43.6 29.0 42.35 29.0 40.55C29.0 38.75 30.400000000000002 37.7 32.75 37.7H39.1V38.2C39.1 41.5 36.6 43.6 33.1 43.6ZM63.85 48.7C70.95 48.7 75.0 44.55 76.30000000000001 39.2L70.2 37.75C69.65 40.95 67.80000000000001 43.1 64.0 43.1C60.2 43.1 57.300000000000004 40.55 57.300000000000004 35.85V35.35C57.300000000000004 30.65 60.2 28.099999999999998 64.0 28.099999999999998C67.80000000000001 28.099999999999998 69.65 30.4 70.05000000000001 33.4L76.15 32.1C75.10000000000001 26.599999999999998 70.95 22.5 63.85 22.5C56.650000000000006 22.5 51.0 27.15 51.0 35.25V35.95C51.0 44.05 56.650000000000006 48.7 63.85 48.7ZM91.8 48.7C98.6 48.7 101.55 44.85 102.95 42.2L97.8 39.5C96.95 41.4 95.5 43.2 92.0 43.2C88.5 43.2 85.85 40.85 85.7 37.45H103.75V35.3C103.75 27.7 99.0 22.5 91.7 22.5C84.3 22.5 79.3 27.5 79.3 35.3V35.9C79.3 43.7 84.35 48.7 91.8 48.7ZM85.75 32.75C86.2 29.9 88.25 28.0 91.65 28.0C94.9 28.0 97.05 29.9 97.35 32.75ZM117.85 48.0H124.85V42.8H120.05C119.14999999999999 42.8 118.64999999999999 42.3 118.64999999999999 41.3V28.4H125.44999999999999V23.2H118.64999999999999V15.5H112.35V23.2H106.14999999999999V28.4H112.35V42.4C112.35 45.8 114.55 48.0 117.85 48.0Z" fill="currentColor"/><polygon class="faceto-o" points="151.55,39.58 145.93,45.20 137.97,45.20 132.35,39.58 132.35,31.62 137.97,26.00 145.93,26.00 151.55,31.62" fill="none" stroke="currentColor" stroke-width="7" stroke-linejoin="miter"/></svg>